<svg id="_1814085_arrow_forward_next_right_icon" data-name="1814085_arrow_forward_next_right_icon" xmlns="http://www.w3.org/2000/svg" width="21.795" height="21.795" viewBox="0 0 21.795 21.795">
  <g id="Icon-Arrow-Left" transform="translate(0 0)">
    <path id="Fill-25" d="M-9-298.105A10.9,10.9,0,0,1-19.9-309,10.9,10.9,0,0,1-9-319.9,10.9,10.9,0,0,1,1.895-309,10.9,10.9,0,0,1-9-298.105Zm0-20.609A9.749,9.749,0,0,0-18.715-309,9.749,9.749,0,0,0-9-299.291,9.749,9.749,0,0,0,.709-309,9.749,9.749,0,0,0-9-318.715Z" transform="translate(19.9 319.9)" fill="#8630ac"/>
    <path id="Fill-26" d="M2.521-297.207l-.821-.866,5.335-5.38L1.7-308.834l.821-.866,6.247,6.247-6.247,6.247" transform="translate(8.149 314.351)" fill="#8630ac"/>
    <path id="Fill-27" d="M2.243-296.123H-8.7V-297.4H2.243Z" transform="translate(13.807 307.659)" fill="#8630ac"/>
  </g>
</svg>
